Coordinates
version=1
nRows=10
nColumns=63
inDegrees=yes

Units are S.I. units (second, meters, Newtons, ...)
If the header above contains a line with 'inDegrees', this indicates whether rotational values are in degrees (yes) or radians (no).

endheader
time	pelvis_tilt	pelvis_list	pelvis_rotation	pelvis_tx	pelvis_ty	pelvis_tz	hip_flexion_r	hip_adduction_r	hip_rotation_r	knee_angle_r	knee_angle_r_beta	ankle_angle_r	subtalar_angle_r	mtp_angle_r	hip_flexion_l	hip_adduction_l	hip_rotation_l	knee_angle_l	knee_angle_l_beta	ankle_angle_l	subtalar_angle_l	mtp_angle_l	L5_S1_Flex_Ext	L5_S1_Lat_Bending	L5_S1_axial_rotation	L4_L5_Flex_Ext	L4_L5_Lat_Bending	L4_L5_axial_rotation	L3_L4_Flex_Ext	L3_L4_Lat_Bending	L3_L4_axial_rotation	L2_L3_Flex_Ext	L2_L3_Lat_Bending	L2_L3_axial_rotation	L1_L2_Flex_Ext	L1_L2_Lat_Bending	L1_L2_axial_rotation	L1_T12_Flex_Ext	L1_T12_Lat_Bending	L1_T12_axial_rotation	Abs_r3	Abs_r2	Abs_r1	Abs_t1	Abs_t2	neck_flexion	neck_bending	neck_rotation	arm_flex_r	arm_add_r	arm_rot_r	elbow_flex_r	pro_sup_r	wrist_flex_r	wrist_dev_r	arm_flex_l	arm_add_l	arm_rot_l	elbow_flex_l	pro_sup_l	wrist_flex_l	wrist_dev_l
     11.66700000	    -63.83293882	     -3.27419617	      8.88761330	     -0.31316812	      1.15031475	      0.03227428	     87.46787900	    -13.33628441	    -10.92406099	     46.21344541	      0.80657678	     -1.88052223	     -6.71763544	      0.00000000	    125.44534849	      4.37990423	     -1.32317940	     91.53810394	      1.59764130	     19.83933644	     -1.92578891	      0.00000000	     -0.07493559	      0.69702210	     -1.73197251	     -0.13916289	      0.92703940	     -1.84022079	     -0.12311169	      1.69473954	     -1.84022079	     -0.08564389	      1.69473954	     -1.51547595	     -0.06958519	      1.42136747	     -1.40722767	     -0.04281820	      1.07968724	     -1.29897938	     -0.53525746	      7.88485342	     -9.63271151	      0.00000000	      0.00000000	      0.00000000	      0.00000000	      0.00000000	     69.54873889	     -5.14825305	     -5.68009550	     40.57673626	     67.70140713	      0.00000000	      5.00000014	     66.91394628	     -5.18637391	     -1.54197859	     39.57330814	     66.02202843	      0.00000000	      5.00000014
     11.67500000	    -63.88840928	     -3.61446257	      8.22111194	     -0.31420686	      1.15030208	      0.03298227	     88.31663357	    -12.70631206	    -10.52750420	     48.89837653	      0.85343767	     -1.47858864	     -7.18732764	      0.00000000	    124.95691639	      4.26810973	     -0.63353177	     89.51192874	      1.56227788	     19.68085366	     -2.14080012	      0.00000000	     -0.07571110	      0.75666851	     -1.59873932	     -0.14060308	      1.00636912	     -1.69866053	     -0.12438576	      1.83976382	     -1.69866053	     -0.08653021	      1.83976382	     -1.39889691	     -0.07030532	      1.54299843	     -1.29897570	     -0.04326132	      1.17207952	     -1.19905449	     -0.54079680	      8.55958554	     -8.89170849	      0.00000000	      0.00000000	      0.00000000	      0.00000000	      0.00000000	     69.79236889	     -5.13205256	     -5.71769894	     40.64898629	     67.71070253	      0.00000000	      5.00000014	     66.90839861	     -5.13398946	     -1.52841771	     39.63955037	     66.03853471	      0.00000000	      5.00000014
     11.68300000	    -63.90987318	     -3.85497500	      7.66871704	     -0.31512643	      1.15025928	      0.03359756	     89.26910038	    -12.12601082	     -9.80127323	     51.78050290	      0.90374026	     -1.25396117	     -7.86354453	      0.00000000	    124.31206232	      4.16836040	     -0.11823107	     87.35010372	      1.52454691	     19.59633276	     -2.62357405	      0.00000000	     -0.07898685	      0.80625224	     -1.49560048	     -0.14668649	      1.07231547	     -1.58907551	     -0.12976750	      1.96032169	     -1.58907551	     -0.09027408	      1.96032169	     -1.30865042	     -0.07334719	      1.64410956	     -1.21517539	     -0.04513309	      1.24888471	     -1.12170036	     -0.56419520	      9.12048655	     -8.31808120	      0.00000000	      0.00000000	      0.00000000	      0.00000000	      0.00000000	     70.01394032	     -5.02089616	     -5.67199225	     40.70273701	     67.73929648	      0.00000000	      5.00000014	     66.89074779	     -5.15059530	     -1.61591926	     39.64170180	     66.05303581	      0.00000000	      5.00000014
     11.69200000	    -63.97120441	     -3.82700626	      7.23772641	     -0.31603184	      1.15036971	      0.03412251	     90.36488511	    -11.71325046	     -8.98711779	     54.67030702	      0.95417686	     -1.39370129	     -9.08195834	      0.00000000	    123.53143591	      3.99956653	      0.02115526	     84.94253772	      1.48252696	     19.26905520	     -3.59626627	      0.00000000	     -0.07980190	      0.81930203	     -1.41186951	     -0.14820011	      1.08967170	     -1.50011135	     -0.13110654	      1.99205095	     -1.50011135	     -0.09120559	      1.99205095	     -1.23538582	     -0.07410405	      1.67072069	     -1.14714397	     -0.04559881	      1.26909884	     -1.05890213	     -0.57001700	      9.26810839	     -7.85239464	      0.00000000	      0.00000000	      0.00000000	      0.00000000	      0.00000000	     70.13930662	     -4.93853353	     -5.54495177	     40.74209165	     67.82063920	      0.00000000	      5.00000014	     66.91643232	     -5.14273322	     -1.84321873	     39.71268240	     66.08890042	      0.00000000	      5.00000014
     11.70000000	    -64.00150271	     -4.08268547	      6.45867392	     -0.31662674	      1.15022702	      0.03474485	     91.31631511	    -11.01677411	     -8.70240011	     57.43081860	      1.00235688	     -0.87603218	     -9.57357833	      0.00000000	    122.77659913	      3.67221245	      0.74824359	     82.69520556	      1.44330361	     18.93076985	     -3.78160509	      0.00000000	     -0.08029236	      0.87491541	     -1.25426599	     -0.14911093	      1.16363750	     -1.33265762	     -0.13191231	      2.12726934	     -1.33265762	     -0.09176613	      2.12726934	     -1.09748275	     -0.07455948	      1.78412751	     -1.01909112	     -0.04587905	      1.35524398	     -0.94069950	     -0.57352027	      9.89721814	     -6.97585118	      0.00000000	      0.00000000	      0.00000000	      0.00000000	      0.00000000	     70.31083196	     -4.92056599	     -5.51605231	     40.81563730	     67.83441077	      0.00000000	      5.00000014	     66.80253093	     -5.10195918	     -1.87426761	     39.85034424	     66.09511366	      0.00000000	      5.00000014
     11.70800000	    -64.00471233	     -4.26813172	      5.79248700	     -0.31703220	      1.14998878	      0.03522219	     92.32270744	    -10.41895477	     -8.29739188	     60.26935506	      1.05189868	     -0.45403068	    -10.08191734	      0.00000000	    121.89401801	      3.37336009	      1.36967467	     80.34598695	      1.40230201	     18.62547342	     -4.09850529	      0.00000000	     -0.08097369	      0.92259612	     -1.12564360	     -0.15037624	      1.22705284	     -1.19599633	     -0.13303167	      2.24320020	     -1.19599633	     -0.09254483	      2.24320020	     -0.98493815	     -0.07519217	      1.88135801	     -0.91458543	     -0.04626837	      1.42910139	     -0.84423270	     -0.57838697	     10.43659182	     -6.26049203	      0.00000000	      0.00000000	      0.00000000	      0.00000000	      0.00000000	     70.43398506	     -4.87677863	     -5.40379620	     40.87626797	     67.85974503	      0.00000000	      5.00000014	     66.65192878	     -5.09871233	     -1.98330874	     39.99801007	     66.09290474	      0.00000000	      5.00000014
     11.71700000	    -64.01295147	     -4.14243073	      5.48124445	     -0.31741015	      1.14993537	      0.03532122	     93.45506354	    -10.24604825	     -7.73417034	     63.15093730	      1.10219178	     -0.38410060	    -10.88696826	      0.00000000	    120.82762099	      3.17580186	      1.41581970	     77.73619040	      1.35675247	     18.03340017	     -4.91882547	      0.00000000	     -0.08470888	      0.93215440	     -1.07298688	     -0.15731286	      1.23976536	     -1.14004856	     -0.13916822	      2.26644022	     -1.14004856	     -0.09681378	      2.26644022	     -0.93886352	     -0.07866067	      1.90084926	     -0.87180184	     -0.04840265	      1.44390717	     -0.80474016	     -0.60506705	     10.54471704	     -5.96763112	      0.00000000	      0.00000000	      0.00000000	      0.00000000	      0.00000000	     70.52779049	     -4.80034771	     -4.97649923	     40.96821182	     67.95998663	      0.00000000	      5.00000014	     66.48774071	     -5.15487159	     -2.41414279	     40.21502885	     66.08389551	      0.00000000	      5.00000014
     11.72500000	    -64.02024741	     -4.23659723	      4.85454435	     -0.31755301	      1.14959789	      0.03563314	     94.51502161	     -9.75453680	     -7.40941820	     65.90471178	      1.15025421	     -0.02346132	    -11.34280051	      0.00000000	    119.82596949	      2.78647169	      1.91344734	     75.31449708	      1.31448595	     17.27277408	     -5.26568141	      0.00000000	     -0.08406235	      0.97203673	     -0.95714815	     -0.15611219	      1.29280885	     -1.01696991	     -0.13810603	      2.36341011	     -1.01696991	     -0.09607486	      2.36341011	     -0.83750463	     -0.07806030	      1.98217730	     -0.77768287	     -0.04803323	      1.50568490	     -0.71786111	     -0.60044896	     10.99587392	     -5.32337086	      0.00000000	      0.00000000	      0.00000000	      0.00000000	      0.00000000	     70.61248554	     -4.76447828	     -4.66323778	     41.04339850	     68.03564455	      0.00000000	      5.00000014	     66.26465068	     -5.14344200	     -2.70476760	     40.41013828	     66.08217033	      0.00000000	      5.00000014
     11.73300000	    -64.00379987	     -4.40876408	      4.06222002	     -0.31749224	      1.14912965	      0.03605197	     95.51679986	     -9.12167832	     -7.23686080	     68.55954656	      1.19658982	      0.54326369	    -11.63738148	      0.00000000	    118.80090404	      2.23579898	      2.61223541	     72.99250094	      1.27395947	     16.43338862	     -5.21042358	      0.00000000	     -0.08509250	      1.02274016	     -0.80296184	     -0.15802528	      1.36024442	     -0.85314696	     -0.13979846	      2.48669043	     -0.85314696	     -0.09725221	      2.48669043	     -0.70259161	     -0.07901689	      2.08557174	     -0.65240650	     -0.04862185	      1.58422451	     -0.60222138	     -0.60780719	     11.56944127	     -4.46583289	      0.00000000	      0.00000000	      0.00000000	      0.00000000	      0.00000000	     70.68087996	     -4.77466016	     -4.51852245	     41.07599882	     68.06381926	      0.00000000	      5.00000014	     66.01390381	     -5.09019442	     -2.83201127	     40.58755917	     66.07416713	      0.00000000	      5.00000014
     11.74200000	    -63.97744004	     -4.36085418	      3.65810972	     -0.31740712	      1.14868354	      0.03600816	     96.65157290	     -8.92267972	     -6.81094015	     71.35590416	      1.24539547	      0.87929458	    -11.70877408	      0.00000000	    117.63628586	      1.85146124	      2.77164112	     70.51279119	      1.23068037	     15.37059388	     -5.33251255	      0.00000000	     -0.08699850	      1.04556326	     -0.73402083	     -0.16156491	      1.39059914	     -0.77989713	     -0.14292984	      2.54218252	     -0.77989713	     -0.09943059	      2.54218252	     -0.64226823	     -0.08078681	      2.13211261	     -0.59639193	     -0.04971094	      1.61957750	     -0.55051562	     -0.62142159	     11.82762076	     -4.08240366	      0.00000000	      0.00000000	      0.00000000	      0.00000000	      0.00000000	     70.69797243	     -4.79644547	     -3.93914708	     41.22434469	     68.17157633	      0.00000000	      5.00000014	     65.75128613	     -5.02005391	     -3.45343388	     40.80688233	     66.03089841	      0.00000000	      5.00000014
